<svg xmlns="http://www.w3.org/2000/svg"  viewBox="0 0 19.426 24.342">
  <g id="download_3_" data-name="download (3)" transform="translate(-4.25 -2.289)">
    <path id="Path_11581" data-name="Path 11581" d="M13.809,7.762a.631.631,0,0,0,0-1.262H8.131a.631.631,0,1,0,0,1.262Z" transform="translate(0.785 1.035)" fill="#ababab" stroke="#ababab" stroke-width="0.5"/>
    <path id="Path_11582" data-name="Path 11582" d="M15.707,10.762H8.131a.631.631,0,1,1,0-1.262h9.463a.631.631,0,0,1,0,1.262Z" transform="translate(0.785 1.821)" fill="#ababab" stroke="#ababab" stroke-width="0.5"/>
    <path id="Path_11583" data-name="Path 11583" d="M12.547,13.131a.631.631,0,0,1-.631.631H8.131a.631.631,0,1,1,0-1.262h3.785A.631.631,0,0,1,12.547,13.131Z" transform="translate(0.785 2.606)" fill="#ababab" stroke="#ababab" stroke-width="0.5"/>
    <path id="Path_11584" data-name="Path 11584" d="M12.547,16.131a.631.631,0,0,1-.631.631H8.131a.631.631,0,0,1,0-1.262h3.785A.631.631,0,0,1,12.547,16.131Z" transform="translate(0.785 3.391)" fill="#ababab" stroke="#ababab" stroke-width="0.5"/>
    <path id="Path_11585" data-name="Path 11585" d="M14.46,2.646a1.262,1.262,0,0,0-.994,0L9.547,4.326,6.259,2.916A1.262,1.262,0,0,0,4.5,4.076V24.743a1.262,1.262,0,0,0,1.888,1.1l3.159-1.805,3.79,2.166a1.261,1.261,0,0,0,1.252,0l3.79-2.166,3.159,1.805a1.262,1.262,0,0,0,1.888-1.1V4.076a1.262,1.262,0,0,0-1.759-1.16L18.379,4.326Zm-.5,1.16,3.919,1.68a1.262,1.262,0,0,0,.994,0l3.288-1.409V24.743L19,22.938a1.261,1.261,0,0,0-1.252,0L13.963,25.1l-3.79-2.166a1.262,1.262,0,0,0-1.252,0L5.762,24.743V4.076L9.05,5.485a1.262,1.262,0,0,0,.994,0Z" fill="#ababab" stroke="#ababab" stroke-width="0.5" fill-rule="evenodd"/>
  </g>
</svg>
