<svg xmlns="http://www.w3.org/2000/svg"  viewBox="0 0 18.963 18.963">
  <g id="download_19_" data-name="download (19)" transform="translate(-1.75 -41.75)">
    <path id="Path_11654" data-name="Path 11654" d="M4.638,42A2.646,2.646,0,0,0,2,44.638c.008,4.126,0,8.37,0,12.529a3.307,3.307,0,0,0,3.3,3.3H18.416a2.058,2.058,0,0,0,2.048-2.048V48a2.058,2.058,0,0,0-2.048-2.048H4.638a1.319,1.319,0,1,1,0-2.638h11.21a.65.65,0,0,1,.659.659.659.659,0,1,0,1.319,0A1.988,1.988,0,0,0,15.848,42ZM3.319,46.907a2.6,2.6,0,0,0,1.319.368H18.416a.713.713,0,0,1,.729.729v2.568h-5.6a2.967,2.967,0,0,0,0,5.935h5.6v1.909a.713.713,0,0,1-.729.729H5.3a1.968,1.968,0,0,1-1.978-1.978ZM13.54,51.891h5.6v3.3h-5.6a1.649,1.649,0,1,1,0-3.3Z" fill="#a7a7a7" stroke="#a7a7a7" stroke-width="0.5"/>
    <path id="Path_11655" data-name="Path 11655" d="M20.209,59.1a.6.6,0,1,1-.6-.6A.6.6,0,0,1,20.209,59.1Z" transform="translate(-5.718 -5.55)" fill="#a7a7a7" stroke="#a7a7a7" stroke-width="0.5"/>
  </g>
</svg>
